<svg width="30" height="30" viewBox="0 0 30 30" fill="none" xmlns="http://www.w3.org/2000/svg">
<path fill-rule="evenodd" clip-rule="evenodd" d="M2.49997 15C2.49997 8.1 8.09997 2.5 15 2.5C21.9 2.5 27.5 8.1 27.5 15C27.5 21.9 21.9 27.5 15 27.5C8.09997 27.5 2.49997 21.9 2.49997 15ZM7.12496 15.875L11.6125 20.3625C12.1 20.85 12.9 20.85 13.375 20.3625L22.8625 10.875C23.35 10.3875 23.35 9.60004 22.8625 9.11254C22.375 8.62504 21.5875 8.62504 21.1 9.11254L12.5 17.7125L8.88746 14.1125C8.39996 13.625 7.61246 13.625 7.12496 14.1125C6.89089 14.3461 6.75935 14.6631 6.75935 14.9938C6.75935 15.3244 6.89089 15.6415 7.12496 15.875Z" fill="#00C04D"/>
</svg>
