<svg width="50" height="50" viewBox="0 0 50 50" fill="none" xmlns="http://www.w3.org/2000/svg">
<g id="icon/navigation/menu_24px">
<path id="icon/navigation/menu_24px_2" fill-rule="evenodd" clip-rule="evenodd" d="M8.33333 16.6667C7.1875 16.6667 6.25 15.7292 6.25 14.5833C6.25 13.4375 7.1875 12.5 8.33333 12.5H41.6667C42.8125 12.5 43.75 13.4375 43.75 14.5833C43.75 15.7292 42.8125 16.6667 41.6667 16.6667H8.33333ZM8.33333 27.0833H41.6667C42.8125 27.0833 43.75 26.1458 43.75 25C43.75 23.8542 42.8125 22.9167 41.6667 22.9167H8.33333C7.1875 22.9167 6.25 23.8542 6.25 25C6.25 26.1458 7.1875 27.0833 8.33333 27.0833ZM8.33333 37.5H41.6667C42.8125 37.5 43.75 36.5625 43.75 35.4167C43.75 34.2708 42.8125 33.3333 41.6667 33.3333H8.33333C7.1875 33.3333 6.25 34.2708 6.25 35.4167C6.25 36.5625 7.1875 37.5 8.33333 37.5Z" fill="#1F4590"/>
</g>
</svg>
